<mxfile host="app.diagrams.net" modified="2024-04-29T13:25:50.078Z" agent="Mozilla/5.0 (X11; Linux x86_64; rv:125.0) Gecko/20100101 Firefox/125.0" etag="knkNbCWSajbySHlUTPPk" version="24.3.1" type="device">
  <diagram name="Page-1" id="qvo-rY45XQ5v4URndQzI">
    <mxGraphModel dx="1180" dy="452" grid="1" gridSize="10" guides="1" tooltips="1" connect="1" arrows="1" fold="1" page="1" pageScale="1" pageWidth="850" pageHeight="1100" math="0" shadow="0">
      <root>
        <mxCell id="0" />
        <mxCell id="1" parent="0" />
        <mxCell id="9zuOswauZrqL41sB7HYH-30" style="edgeStyle=orthogonalEdgeStyle;rounded=0;orthogonalLoop=1;jettySize=auto;html=1;exitX=1;exitY=0.5;exitDx=0;exitDy=0;startArrow=classic;startFill=1;" edge="1" parent="1" source="9zuOswauZrqL41sB7HYH-2" target="9zuOswauZrqL41sB7HYH-3">
          <mxGeometry relative="1" as="geometry" />
        </mxCell>
        <mxCell id="9zuOswauZrqL41sB7HYH-31" style="edgeStyle=orthogonalEdgeStyle;rounded=0;orthogonalLoop=1;jettySize=auto;html=1;exitX=0.5;exitY=1;exitDx=0;exitDy=0;entryX=0.5;entryY=0;entryDx=0;entryDy=0;" edge="1" parent="1" source="9zuOswauZrqL41sB7HYH-2" target="9zuOswauZrqL41sB7HYH-5">
          <mxGeometry relative="1" as="geometry" />
        </mxCell>
        <mxCell id="9zuOswauZrqL41sB7HYH-32" style="edgeStyle=orthogonalEdgeStyle;rounded=0;orthogonalLoop=1;jettySize=auto;html=1;exitX=0.5;exitY=1;exitDx=0;exitDy=0;entryX=0.5;entryY=0;entryDx=0;entryDy=0;" edge="1" parent="1" source="9zuOswauZrqL41sB7HYH-2" target="9zuOswauZrqL41sB7HYH-6">
          <mxGeometry relative="1" as="geometry" />
        </mxCell>
        <mxCell id="9zuOswauZrqL41sB7HYH-33" style="edgeStyle=orthogonalEdgeStyle;rounded=0;orthogonalLoop=1;jettySize=auto;html=1;exitX=0.5;exitY=1;exitDx=0;exitDy=0;entryX=0.5;entryY=0;entryDx=0;entryDy=0;" edge="1" parent="1" source="9zuOswauZrqL41sB7HYH-2" target="9zuOswauZrqL41sB7HYH-7">
          <mxGeometry relative="1" as="geometry" />
        </mxCell>
        <mxCell id="9zuOswauZrqL41sB7HYH-34" style="edgeStyle=orthogonalEdgeStyle;rounded=0;orthogonalLoop=1;jettySize=auto;html=1;exitX=0.5;exitY=1;exitDx=0;exitDy=0;entryX=0.5;entryY=0;entryDx=0;entryDy=0;" edge="1" parent="1" source="9zuOswauZrqL41sB7HYH-2" target="9zuOswauZrqL41sB7HYH-8">
          <mxGeometry relative="1" as="geometry" />
        </mxCell>
        <mxCell id="9zuOswauZrqL41sB7HYH-35" style="edgeStyle=orthogonalEdgeStyle;rounded=0;orthogonalLoop=1;jettySize=auto;html=1;exitX=0.5;exitY=1;exitDx=0;exitDy=0;entryX=0.5;entryY=0;entryDx=0;entryDy=0;" edge="1" parent="1" source="9zuOswauZrqL41sB7HYH-2" target="9zuOswauZrqL41sB7HYH-9">
          <mxGeometry relative="1" as="geometry" />
        </mxCell>
        <mxCell id="9zuOswauZrqL41sB7HYH-36" style="edgeStyle=orthogonalEdgeStyle;rounded=0;orthogonalLoop=1;jettySize=auto;html=1;exitX=0.5;exitY=1;exitDx=0;exitDy=0;entryX=0.5;entryY=0;entryDx=0;entryDy=0;" edge="1" parent="1" source="9zuOswauZrqL41sB7HYH-2" target="9zuOswauZrqL41sB7HYH-10">
          <mxGeometry relative="1" as="geometry" />
        </mxCell>
        <mxCell id="9zuOswauZrqL41sB7HYH-2" value="CPU" style="rounded=0;whiteSpace=wrap;html=1;" vertex="1" parent="1">
          <mxGeometry x="200" y="360" width="80" height="40" as="geometry" />
        </mxCell>
        <mxCell id="9zuOswauZrqL41sB7HYH-37" style="edgeStyle=orthogonalEdgeStyle;rounded=0;orthogonalLoop=1;jettySize=auto;html=1;exitX=0.5;exitY=1;exitDx=0;exitDy=0;entryX=0.5;entryY=0;entryDx=0;entryDy=0;" edge="1" parent="1" source="9zuOswauZrqL41sB7HYH-3" target="9zuOswauZrqL41sB7HYH-8">
          <mxGeometry relative="1" as="geometry" />
        </mxCell>
        <mxCell id="9zuOswauZrqL41sB7HYH-3" value="CPU" style="rounded=0;whiteSpace=wrap;html=1;" vertex="1" parent="1">
          <mxGeometry x="340" y="360" width="80" height="40" as="geometry" />
        </mxCell>
        <mxCell id="9zuOswauZrqL41sB7HYH-23" style="edgeStyle=orthogonalEdgeStyle;rounded=0;orthogonalLoop=1;jettySize=auto;html=1;exitX=0.5;exitY=1;exitDx=0;exitDy=0;entryX=0.5;entryY=0;entryDx=0;entryDy=0;" edge="1" parent="1" source="9zuOswauZrqL41sB7HYH-5" target="9zuOswauZrqL41sB7HYH-17">
          <mxGeometry relative="1" as="geometry" />
        </mxCell>
        <mxCell id="9zuOswauZrqL41sB7HYH-5" value="&lt;div&gt;PCIE/NIC&lt;/div&gt;&lt;div&gt;Switch&lt;br&gt;&lt;/div&gt;" style="rounded=0;whiteSpace=wrap;html=1;" vertex="1" parent="1">
          <mxGeometry x="50" y="440" width="70" height="40" as="geometry" />
        </mxCell>
        <mxCell id="9zuOswauZrqL41sB7HYH-24" style="edgeStyle=orthogonalEdgeStyle;rounded=0;orthogonalLoop=1;jettySize=auto;html=1;exitX=0.5;exitY=1;exitDx=0;exitDy=0;entryX=0.5;entryY=0;entryDx=0;entryDy=0;" edge="1" parent="1" source="9zuOswauZrqL41sB7HYH-6" target="9zuOswauZrqL41sB7HYH-18">
          <mxGeometry relative="1" as="geometry" />
        </mxCell>
        <mxCell id="9zuOswauZrqL41sB7HYH-6" value="&lt;div&gt;PCIE/NIC&lt;/div&gt;&lt;div&gt;Switch&lt;br&gt;&lt;/div&gt;" style="rounded=0;whiteSpace=wrap;html=1;" vertex="1" parent="1">
          <mxGeometry x="140" y="440" width="70" height="40" as="geometry" />
        </mxCell>
        <mxCell id="9zuOswauZrqL41sB7HYH-25" style="edgeStyle=orthogonalEdgeStyle;rounded=0;orthogonalLoop=1;jettySize=auto;html=1;exitX=0.5;exitY=1;exitDx=0;exitDy=0;entryX=0.5;entryY=0;entryDx=0;entryDy=0;" edge="1" parent="1" source="9zuOswauZrqL41sB7HYH-7" target="9zuOswauZrqL41sB7HYH-19">
          <mxGeometry relative="1" as="geometry" />
        </mxCell>
        <mxCell id="9zuOswauZrqL41sB7HYH-7" value="&lt;div&gt;PCIE/NIC&lt;/div&gt;&lt;div&gt;Switch&lt;br&gt;&lt;/div&gt;" style="rounded=0;whiteSpace=wrap;html=1;" vertex="1" parent="1">
          <mxGeometry x="230" y="440" width="70" height="40" as="geometry" />
        </mxCell>
        <mxCell id="9zuOswauZrqL41sB7HYH-26" style="edgeStyle=orthogonalEdgeStyle;rounded=0;orthogonalLoop=1;jettySize=auto;html=1;exitX=0.5;exitY=1;exitDx=0;exitDy=0;entryX=0.5;entryY=0;entryDx=0;entryDy=0;" edge="1" parent="1" source="9zuOswauZrqL41sB7HYH-8" target="9zuOswauZrqL41sB7HYH-20">
          <mxGeometry relative="1" as="geometry" />
        </mxCell>
        <mxCell id="9zuOswauZrqL41sB7HYH-8" value="&lt;div&gt;PCIE/NIC&lt;/div&gt;&lt;div&gt;Switch&lt;br&gt;&lt;/div&gt;" style="rounded=0;whiteSpace=wrap;html=1;" vertex="1" parent="1">
          <mxGeometry x="320" y="440" width="70" height="40" as="geometry" />
        </mxCell>
        <mxCell id="9zuOswauZrqL41sB7HYH-28" style="edgeStyle=orthogonalEdgeStyle;rounded=0;orthogonalLoop=1;jettySize=auto;html=1;exitX=0.5;exitY=1;exitDx=0;exitDy=0;entryX=0.5;entryY=0;entryDx=0;entryDy=0;" edge="1" parent="1" source="9zuOswauZrqL41sB7HYH-9" target="9zuOswauZrqL41sB7HYH-21">
          <mxGeometry relative="1" as="geometry" />
        </mxCell>
        <mxCell id="9zuOswauZrqL41sB7HYH-9" value="&lt;div&gt;PCIE/NIC&lt;/div&gt;&lt;div&gt;Switch&lt;br&gt;&lt;/div&gt;" style="rounded=0;whiteSpace=wrap;html=1;" vertex="1" parent="1">
          <mxGeometry x="410" y="440" width="70" height="40" as="geometry" />
        </mxCell>
        <mxCell id="9zuOswauZrqL41sB7HYH-29" style="edgeStyle=orthogonalEdgeStyle;rounded=0;orthogonalLoop=1;jettySize=auto;html=1;exitX=0.5;exitY=1;exitDx=0;exitDy=0;entryX=0.5;entryY=0;entryDx=0;entryDy=0;" edge="1" parent="1" source="9zuOswauZrqL41sB7HYH-10" target="9zuOswauZrqL41sB7HYH-22">
          <mxGeometry relative="1" as="geometry" />
        </mxCell>
        <mxCell id="9zuOswauZrqL41sB7HYH-10" value="&lt;div&gt;PCIE/NIC&lt;/div&gt;&lt;div&gt;Switch&lt;br&gt;&lt;/div&gt;" style="rounded=0;whiteSpace=wrap;html=1;" vertex="1" parent="1">
          <mxGeometry x="500" y="440" width="70" height="40" as="geometry" />
        </mxCell>
        <mxCell id="9zuOswauZrqL41sB7HYH-43" style="rounded=0;orthogonalLoop=1;jettySize=auto;html=1;exitX=0.5;exitY=1;exitDx=0;exitDy=0;entryX=0.5;entryY=0;entryDx=0;entryDy=0;" edge="1" parent="1" source="9zuOswauZrqL41sB7HYH-17" target="9zuOswauZrqL41sB7HYH-38">
          <mxGeometry relative="1" as="geometry" />
        </mxCell>
        <mxCell id="9zuOswauZrqL41sB7HYH-44" style="rounded=0;orthogonalLoop=1;jettySize=auto;html=1;exitX=0.5;exitY=1;exitDx=0;exitDy=0;entryX=0.5;entryY=0;entryDx=0;entryDy=0;" edge="1" parent="1" source="9zuOswauZrqL41sB7HYH-17" target="9zuOswauZrqL41sB7HYH-42">
          <mxGeometry relative="1" as="geometry" />
        </mxCell>
        <mxCell id="9zuOswauZrqL41sB7HYH-45" style="rounded=0;orthogonalLoop=1;jettySize=auto;html=1;exitX=0.5;exitY=1;exitDx=0;exitDy=0;entryX=0.5;entryY=0;entryDx=0;entryDy=0;" edge="1" parent="1" source="9zuOswauZrqL41sB7HYH-17" target="9zuOswauZrqL41sB7HYH-41">
          <mxGeometry relative="1" as="geometry" />
        </mxCell>
        <mxCell id="9zuOswauZrqL41sB7HYH-85" style="edgeStyle=orthogonalEdgeStyle;rounded=0;orthogonalLoop=1;jettySize=auto;html=1;exitX=0;exitY=0.5;exitDx=0;exitDy=0;entryX=0.833;entryY=0.333;entryDx=0;entryDy=0;entryPerimeter=0;strokeColor=#0000FF;" edge="1" parent="1" source="9zuOswauZrqL41sB7HYH-17" target="9zuOswauZrqL41sB7HYH-62">
          <mxGeometry relative="1" as="geometry" />
        </mxCell>
        <mxCell id="9zuOswauZrqL41sB7HYH-17" value="H100" style="rounded=0;whiteSpace=wrap;html=1;" vertex="1" parent="1">
          <mxGeometry x="50" y="520" width="70" height="40" as="geometry" />
        </mxCell>
        <mxCell id="9zuOswauZrqL41sB7HYH-46" style="edgeStyle=none;rounded=0;orthogonalLoop=1;jettySize=auto;html=1;exitX=0.5;exitY=1;exitDx=0;exitDy=0;entryX=0.5;entryY=0;entryDx=0;entryDy=0;" edge="1" parent="1" source="9zuOswauZrqL41sB7HYH-18" target="9zuOswauZrqL41sB7HYH-42">
          <mxGeometry relative="1" as="geometry" />
        </mxCell>
        <mxCell id="9zuOswauZrqL41sB7HYH-47" style="edgeStyle=none;rounded=0;orthogonalLoop=1;jettySize=auto;html=1;exitX=0.5;exitY=1;exitDx=0;exitDy=0;entryX=0.5;entryY=0;entryDx=0;entryDy=0;" edge="1" parent="1" source="9zuOswauZrqL41sB7HYH-18" target="9zuOswauZrqL41sB7HYH-38">
          <mxGeometry relative="1" as="geometry" />
        </mxCell>
        <mxCell id="9zuOswauZrqL41sB7HYH-48" style="edgeStyle=none;rounded=0;orthogonalLoop=1;jettySize=auto;html=1;exitX=0.5;exitY=1;exitDx=0;exitDy=0;entryX=0.5;entryY=0;entryDx=0;entryDy=0;" edge="1" parent="1" source="9zuOswauZrqL41sB7HYH-18" target="9zuOswauZrqL41sB7HYH-41">
          <mxGeometry relative="1" as="geometry" />
        </mxCell>
        <mxCell id="9zuOswauZrqL41sB7HYH-18" value="H100" style="rounded=0;whiteSpace=wrap;html=1;" vertex="1" parent="1">
          <mxGeometry x="140" y="520" width="70" height="40" as="geometry" />
        </mxCell>
        <mxCell id="9zuOswauZrqL41sB7HYH-49" style="edgeStyle=none;rounded=0;orthogonalLoop=1;jettySize=auto;html=1;exitX=0.5;exitY=1;exitDx=0;exitDy=0;entryX=0.5;entryY=0;entryDx=0;entryDy=0;" edge="1" parent="1" source="9zuOswauZrqL41sB7HYH-19" target="9zuOswauZrqL41sB7HYH-42">
          <mxGeometry relative="1" as="geometry" />
        </mxCell>
        <mxCell id="9zuOswauZrqL41sB7HYH-50" style="edgeStyle=none;rounded=0;orthogonalLoop=1;jettySize=auto;html=1;exitX=0.5;exitY=1;exitDx=0;exitDy=0;entryX=0.5;entryY=0;entryDx=0;entryDy=0;" edge="1" parent="1" source="9zuOswauZrqL41sB7HYH-19" target="9zuOswauZrqL41sB7HYH-38">
          <mxGeometry relative="1" as="geometry" />
        </mxCell>
        <mxCell id="9zuOswauZrqL41sB7HYH-51" style="edgeStyle=none;rounded=0;orthogonalLoop=1;jettySize=auto;html=1;exitX=0.5;exitY=1;exitDx=0;exitDy=0;entryX=0.5;entryY=0;entryDx=0;entryDy=0;" edge="1" parent="1" source="9zuOswauZrqL41sB7HYH-19" target="9zuOswauZrqL41sB7HYH-41">
          <mxGeometry relative="1" as="geometry" />
        </mxCell>
        <mxCell id="9zuOswauZrqL41sB7HYH-19" value="H100" style="rounded=0;whiteSpace=wrap;html=1;" vertex="1" parent="1">
          <mxGeometry x="230" y="520" width="70" height="40" as="geometry" />
        </mxCell>
        <mxCell id="9zuOswauZrqL41sB7HYH-52" style="edgeStyle=none;rounded=0;orthogonalLoop=1;jettySize=auto;html=1;exitX=0.5;exitY=1;exitDx=0;exitDy=0;" edge="1" parent="1" source="9zuOswauZrqL41sB7HYH-20">
          <mxGeometry relative="1" as="geometry">
            <mxPoint x="120" y="600" as="targetPoint" />
          </mxGeometry>
        </mxCell>
        <mxCell id="9zuOswauZrqL41sB7HYH-53" style="edgeStyle=none;rounded=0;orthogonalLoop=1;jettySize=auto;html=1;exitX=0.5;exitY=1;exitDx=0;exitDy=0;entryX=0.5;entryY=0;entryDx=0;entryDy=0;" edge="1" parent="1" source="9zuOswauZrqL41sB7HYH-20" target="9zuOswauZrqL41sB7HYH-38">
          <mxGeometry relative="1" as="geometry" />
        </mxCell>
        <mxCell id="9zuOswauZrqL41sB7HYH-54" style="edgeStyle=none;rounded=0;orthogonalLoop=1;jettySize=auto;html=1;exitX=0.5;exitY=1;exitDx=0;exitDy=0;entryX=0.5;entryY=0;entryDx=0;entryDy=0;" edge="1" parent="1" source="9zuOswauZrqL41sB7HYH-20" target="9zuOswauZrqL41sB7HYH-41">
          <mxGeometry relative="1" as="geometry" />
        </mxCell>
        <mxCell id="9zuOswauZrqL41sB7HYH-20" value="H100" style="rounded=0;whiteSpace=wrap;html=1;" vertex="1" parent="1">
          <mxGeometry x="320" y="520" width="70" height="40" as="geometry" />
        </mxCell>
        <mxCell id="9zuOswauZrqL41sB7HYH-55" style="edgeStyle=none;rounded=0;orthogonalLoop=1;jettySize=auto;html=1;exitX=0.5;exitY=1;exitDx=0;exitDy=0;entryX=0.5;entryY=0;entryDx=0;entryDy=0;" edge="1" parent="1" source="9zuOswauZrqL41sB7HYH-21" target="9zuOswauZrqL41sB7HYH-42">
          <mxGeometry relative="1" as="geometry" />
        </mxCell>
        <mxCell id="9zuOswauZrqL41sB7HYH-56" style="edgeStyle=none;rounded=0;orthogonalLoop=1;jettySize=auto;html=1;exitX=0.5;exitY=1;exitDx=0;exitDy=0;entryX=0.5;entryY=0;entryDx=0;entryDy=0;" edge="1" parent="1" source="9zuOswauZrqL41sB7HYH-21" target="9zuOswauZrqL41sB7HYH-38">
          <mxGeometry relative="1" as="geometry" />
        </mxCell>
        <mxCell id="9zuOswauZrqL41sB7HYH-57" style="edgeStyle=none;rounded=0;orthogonalLoop=1;jettySize=auto;html=1;exitX=0.5;exitY=1;exitDx=0;exitDy=0;entryX=0.5;entryY=0;entryDx=0;entryDy=0;" edge="1" parent="1" source="9zuOswauZrqL41sB7HYH-21" target="9zuOswauZrqL41sB7HYH-41">
          <mxGeometry relative="1" as="geometry" />
        </mxCell>
        <mxCell id="9zuOswauZrqL41sB7HYH-21" value="H100" style="rounded=0;whiteSpace=wrap;html=1;" vertex="1" parent="1">
          <mxGeometry x="410" y="520" width="70" height="40" as="geometry" />
        </mxCell>
        <mxCell id="9zuOswauZrqL41sB7HYH-58" style="edgeStyle=none;rounded=0;orthogonalLoop=1;jettySize=auto;html=1;exitX=0.5;exitY=1;exitDx=0;exitDy=0;entryX=0.5;entryY=0;entryDx=0;entryDy=0;" edge="1" parent="1" source="9zuOswauZrqL41sB7HYH-22" target="9zuOswauZrqL41sB7HYH-42">
          <mxGeometry relative="1" as="geometry" />
        </mxCell>
        <mxCell id="9zuOswauZrqL41sB7HYH-59" style="edgeStyle=none;rounded=0;orthogonalLoop=1;jettySize=auto;html=1;exitX=0.5;exitY=1;exitDx=0;exitDy=0;entryX=0.5;entryY=0;entryDx=0;entryDy=0;" edge="1" parent="1" source="9zuOswauZrqL41sB7HYH-22" target="9zuOswauZrqL41sB7HYH-38">
          <mxGeometry relative="1" as="geometry" />
        </mxCell>
        <mxCell id="9zuOswauZrqL41sB7HYH-60" style="edgeStyle=none;rounded=0;orthogonalLoop=1;jettySize=auto;html=1;exitX=0.5;exitY=1;exitDx=0;exitDy=0;entryX=0.5;entryY=0;entryDx=0;entryDy=0;" edge="1" parent="1" source="9zuOswauZrqL41sB7HYH-22" target="9zuOswauZrqL41sB7HYH-41">
          <mxGeometry relative="1" as="geometry" />
        </mxCell>
        <mxCell id="9zuOswauZrqL41sB7HYH-22" value="H100" style="rounded=0;whiteSpace=wrap;html=1;" vertex="1" parent="1">
          <mxGeometry x="500" y="520" width="70" height="40" as="geometry" />
        </mxCell>
        <mxCell id="9zuOswauZrqL41sB7HYH-38" value="NVSwitch" style="rounded=0;whiteSpace=wrap;html=1;" vertex="1" parent="1">
          <mxGeometry x="250" y="600" width="120" height="60" as="geometry" />
        </mxCell>
        <mxCell id="9zuOswauZrqL41sB7HYH-41" value="NVSwitch" style="rounded=0;whiteSpace=wrap;html=1;" vertex="1" parent="1">
          <mxGeometry x="430" y="600" width="120" height="60" as="geometry" />
        </mxCell>
        <mxCell id="9zuOswauZrqL41sB7HYH-42" value="NVSwitch" style="rounded=0;whiteSpace=wrap;html=1;" vertex="1" parent="1">
          <mxGeometry x="60" y="600" width="120" height="60" as="geometry" />
        </mxCell>
        <mxCell id="9zuOswauZrqL41sB7HYH-75" value="" style="group" vertex="1" connectable="0" parent="1">
          <mxGeometry x="10" y="670" width="30" height="60" as="geometry" />
        </mxCell>
        <mxCell id="9zuOswauZrqL41sB7HYH-61" value="" style="rounded=0;whiteSpace=wrap;html=1;direction=east;" vertex="1" parent="9zuOswauZrqL41sB7HYH-75">
          <mxGeometry x="5" y="10" width="20" height="40" as="geometry" />
        </mxCell>
        <mxCell id="9zuOswauZrqL41sB7HYH-62" value="OFSP" style="text;html=1;align=center;verticalAlign=middle;resizable=0;points=[];autosize=1;strokeColor=none;fillColor=none;rotation=-90;container=0;" vertex="1" parent="9zuOswauZrqL41sB7HYH-75">
          <mxGeometry x="-15" y="15" width="60" height="30" as="geometry" />
        </mxCell>
        <mxCell id="9zuOswauZrqL41sB7HYH-76" value="" style="group" vertex="1" connectable="0" parent="1">
          <mxGeometry x="490" y="670" width="30" height="60" as="geometry" />
        </mxCell>
        <mxCell id="9zuOswauZrqL41sB7HYH-77" value="" style="rounded=0;whiteSpace=wrap;html=1;direction=east;" vertex="1" parent="9zuOswauZrqL41sB7HYH-76">
          <mxGeometry x="5" y="10" width="20" height="40" as="geometry" />
        </mxCell>
        <mxCell id="9zuOswauZrqL41sB7HYH-78" value="OFSP" style="text;html=1;align=center;verticalAlign=middle;resizable=0;points=[];autosize=1;strokeColor=none;fillColor=none;rotation=-90;container=1;" vertex="1" parent="9zuOswauZrqL41sB7HYH-76">
          <mxGeometry x="-15" y="15" width="60" height="30" as="geometry" />
        </mxCell>
        <mxCell id="9zuOswauZrqL41sB7HYH-79" value="" style="group" vertex="1" connectable="0" parent="1">
          <mxGeometry x="280" y="670" width="30" height="60" as="geometry" />
        </mxCell>
        <mxCell id="9zuOswauZrqL41sB7HYH-80" value="" style="rounded=0;whiteSpace=wrap;html=1;direction=east;" vertex="1" parent="9zuOswauZrqL41sB7HYH-79">
          <mxGeometry x="5" y="10" width="20" height="40" as="geometry" />
        </mxCell>
        <mxCell id="9zuOswauZrqL41sB7HYH-81" value="OFSP" style="text;html=1;align=center;verticalAlign=middle;resizable=0;points=[];autosize=1;strokeColor=none;fillColor=none;rotation=-90;container=1;" vertex="1" parent="9zuOswauZrqL41sB7HYH-79">
          <mxGeometry x="-15" y="15" width="60" height="30" as="geometry" />
        </mxCell>
        <mxCell id="9zuOswauZrqL41sB7HYH-82" value="" style="group" vertex="1" connectable="0" parent="1">
          <mxGeometry x="310" y="670" width="30" height="60" as="geometry" />
        </mxCell>
        <mxCell id="9zuOswauZrqL41sB7HYH-83" value="" style="rounded=0;whiteSpace=wrap;html=1;direction=east;" vertex="1" parent="9zuOswauZrqL41sB7HYH-82">
          <mxGeometry x="5" y="10" width="20" height="40" as="geometry" />
        </mxCell>
        <mxCell id="9zuOswauZrqL41sB7HYH-84" value="OFSP" style="text;html=1;align=center;verticalAlign=middle;resizable=0;points=[];autosize=1;strokeColor=none;fillColor=none;rotation=-90;container=1;" vertex="1" parent="9zuOswauZrqL41sB7HYH-82">
          <mxGeometry x="-15" y="15" width="60" height="30" as="geometry" />
        </mxCell>
        <mxCell id="9zuOswauZrqL41sB7HYH-86" style="edgeStyle=orthogonalEdgeStyle;rounded=0;orthogonalLoop=1;jettySize=auto;html=1;exitX=0;exitY=0.5;exitDx=0;exitDy=0;entryX=0.833;entryY=0.667;entryDx=0;entryDy=0;entryPerimeter=0;strokeColor=#0000FF;" edge="1" parent="1" source="9zuOswauZrqL41sB7HYH-18" target="9zuOswauZrqL41sB7HYH-62">
          <mxGeometry relative="1" as="geometry">
            <Array as="points">
              <mxPoint x="130" y="540" />
              <mxPoint x="130" y="570" />
              <mxPoint x="30" y="570" />
            </Array>
          </mxGeometry>
        </mxCell>
        <mxCell id="9zuOswauZrqL41sB7HYH-87" value="" style="group" vertex="1" connectable="0" parent="1">
          <mxGeometry x="250" y="670" width="30" height="60" as="geometry" />
        </mxCell>
        <mxCell id="9zuOswauZrqL41sB7HYH-88" value="" style="rounded=0;whiteSpace=wrap;html=1;direction=east;" vertex="1" parent="9zuOswauZrqL41sB7HYH-87">
          <mxGeometry x="5" y="10" width="20" height="40" as="geometry" />
        </mxCell>
        <mxCell id="9zuOswauZrqL41sB7HYH-89" value="OFSP" style="text;html=1;align=center;verticalAlign=middle;resizable=0;points=[];autosize=1;strokeColor=none;fillColor=none;rotation=-90;container=1;" vertex="1" parent="9zuOswauZrqL41sB7HYH-87">
          <mxGeometry x="-15" y="15" width="60" height="30" as="geometry" />
        </mxCell>
        <mxCell id="9zuOswauZrqL41sB7HYH-90" value="" style="group" vertex="1" connectable="0" parent="1">
          <mxGeometry x="340" y="670" width="30" height="60" as="geometry" />
        </mxCell>
        <mxCell id="9zuOswauZrqL41sB7HYH-91" value="" style="rounded=0;whiteSpace=wrap;html=1;direction=east;" vertex="1" parent="9zuOswauZrqL41sB7HYH-90">
          <mxGeometry x="5" y="10" width="20" height="40" as="geometry" />
        </mxCell>
        <mxCell id="9zuOswauZrqL41sB7HYH-92" value="OFSP" style="text;html=1;align=center;verticalAlign=middle;resizable=0;points=[];autosize=1;strokeColor=none;fillColor=none;rotation=-90;container=1;" vertex="1" parent="9zuOswauZrqL41sB7HYH-90">
          <mxGeometry x="-15" y="15" width="60" height="30" as="geometry" />
        </mxCell>
        <mxCell id="9zuOswauZrqL41sB7HYH-93" value="" style="group" vertex="1" connectable="0" parent="1">
          <mxGeometry x="430" y="670" width="30" height="60" as="geometry" />
        </mxCell>
        <mxCell id="9zuOswauZrqL41sB7HYH-94" value="" style="rounded=0;whiteSpace=wrap;html=1;direction=east;" vertex="1" parent="9zuOswauZrqL41sB7HYH-93">
          <mxGeometry x="5" y="10" width="20" height="40" as="geometry" />
        </mxCell>
        <mxCell id="9zuOswauZrqL41sB7HYH-95" value="OFSP" style="text;html=1;align=center;verticalAlign=middle;resizable=0;points=[];autosize=1;strokeColor=none;fillColor=none;rotation=-90;container=1;" vertex="1" parent="9zuOswauZrqL41sB7HYH-93">
          <mxGeometry x="-15" y="15" width="60" height="30" as="geometry" />
        </mxCell>
        <mxCell id="9zuOswauZrqL41sB7HYH-96" value="" style="group" vertex="1" connectable="0" parent="1">
          <mxGeometry x="460" y="670" width="30" height="60" as="geometry" />
        </mxCell>
        <mxCell id="9zuOswauZrqL41sB7HYH-97" value="" style="rounded=0;whiteSpace=wrap;html=1;direction=east;" vertex="1" parent="9zuOswauZrqL41sB7HYH-96">
          <mxGeometry x="5" y="10" width="20" height="40" as="geometry" />
        </mxCell>
        <mxCell id="9zuOswauZrqL41sB7HYH-98" value="OFSP" style="text;html=1;align=center;verticalAlign=middle;resizable=0;points=[];autosize=1;strokeColor=none;fillColor=none;rotation=-90;container=1;" vertex="1" parent="9zuOswauZrqL41sB7HYH-96">
          <mxGeometry x="-15" y="15" width="60" height="30" as="geometry" />
        </mxCell>
        <mxCell id="9zuOswauZrqL41sB7HYH-99" value="" style="group" vertex="1" connectable="0" parent="1">
          <mxGeometry x="520" y="670" width="30" height="60" as="geometry" />
        </mxCell>
        <mxCell id="9zuOswauZrqL41sB7HYH-100" value="" style="rounded=0;whiteSpace=wrap;html=1;direction=east;" vertex="1" parent="9zuOswauZrqL41sB7HYH-99">
          <mxGeometry x="5" y="10" width="20" height="40" as="geometry" />
        </mxCell>
        <mxCell id="9zuOswauZrqL41sB7HYH-101" value="OFSP" style="text;html=1;align=center;verticalAlign=middle;resizable=0;points=[];autosize=1;strokeColor=none;fillColor=none;rotation=-90;container=1;" vertex="1" parent="9zuOswauZrqL41sB7HYH-99">
          <mxGeometry x="-15" y="15" width="60" height="30" as="geometry" />
        </mxCell>
        <mxCell id="9zuOswauZrqL41sB7HYH-102" value="" style="group" vertex="1" connectable="0" parent="1">
          <mxGeometry x="60" y="670" width="30" height="60" as="geometry" />
        </mxCell>
        <mxCell id="9zuOswauZrqL41sB7HYH-103" value="" style="rounded=0;whiteSpace=wrap;html=1;direction=east;" vertex="1" parent="9zuOswauZrqL41sB7HYH-102">
          <mxGeometry x="5" y="10" width="20" height="40" as="geometry" />
        </mxCell>
        <mxCell id="9zuOswauZrqL41sB7HYH-104" value="OFSP" style="text;html=1;align=center;verticalAlign=middle;resizable=0;points=[];autosize=1;strokeColor=none;fillColor=none;rotation=-90;container=1;" vertex="1" parent="9zuOswauZrqL41sB7HYH-102">
          <mxGeometry x="-15" y="15" width="60" height="30" as="geometry" />
        </mxCell>
        <mxCell id="9zuOswauZrqL41sB7HYH-105" value="" style="group" vertex="1" connectable="0" parent="1">
          <mxGeometry x="90" y="670" width="30" height="60" as="geometry" />
        </mxCell>
        <mxCell id="9zuOswauZrqL41sB7HYH-106" value="" style="rounded=0;whiteSpace=wrap;html=1;direction=east;" vertex="1" parent="9zuOswauZrqL41sB7HYH-105">
          <mxGeometry x="5" y="10" width="20" height="40" as="geometry" />
        </mxCell>
        <mxCell id="9zuOswauZrqL41sB7HYH-107" value="OFSP" style="text;html=1;align=center;verticalAlign=middle;resizable=0;points=[];autosize=1;strokeColor=none;fillColor=none;rotation=-90;container=1;" vertex="1" parent="9zuOswauZrqL41sB7HYH-105">
          <mxGeometry x="-15" y="15" width="60" height="30" as="geometry" />
        </mxCell>
        <mxCell id="9zuOswauZrqL41sB7HYH-108" value="" style="group" vertex="1" connectable="0" parent="1">
          <mxGeometry x="120" y="670" width="30" height="60" as="geometry" />
        </mxCell>
        <mxCell id="9zuOswauZrqL41sB7HYH-109" value="" style="rounded=0;whiteSpace=wrap;html=1;direction=east;" vertex="1" parent="9zuOswauZrqL41sB7HYH-108">
          <mxGeometry x="5" y="10" width="20" height="40" as="geometry" />
        </mxCell>
        <mxCell id="9zuOswauZrqL41sB7HYH-110" value="OFSP" style="text;html=1;align=center;verticalAlign=middle;resizable=0;points=[];autosize=1;strokeColor=none;fillColor=none;rotation=-90;container=1;" vertex="1" parent="9zuOswauZrqL41sB7HYH-108">
          <mxGeometry x="-15" y="15" width="60" height="30" as="geometry" />
        </mxCell>
        <mxCell id="9zuOswauZrqL41sB7HYH-111" value="" style="group" vertex="1" connectable="0" parent="1">
          <mxGeometry x="150" y="670" width="30" height="60" as="geometry" />
        </mxCell>
        <mxCell id="9zuOswauZrqL41sB7HYH-112" value="" style="rounded=0;whiteSpace=wrap;html=1;direction=east;" vertex="1" parent="9zuOswauZrqL41sB7HYH-111">
          <mxGeometry x="5" y="10" width="20" height="40" as="geometry" />
        </mxCell>
        <mxCell id="9zuOswauZrqL41sB7HYH-113" value="OFSP" style="text;html=1;align=center;verticalAlign=middle;resizable=0;points=[];autosize=1;strokeColor=none;fillColor=none;rotation=-90;container=1;" vertex="1" parent="9zuOswauZrqL41sB7HYH-111">
          <mxGeometry x="-15" y="15" width="60" height="30" as="geometry" />
        </mxCell>
        <mxCell id="9zuOswauZrqL41sB7HYH-114" value="" style="group" vertex="1" connectable="0" parent="1">
          <mxGeometry x="570" y="670" width="30" height="60" as="geometry" />
        </mxCell>
        <mxCell id="9zuOswauZrqL41sB7HYH-115" value="" style="rounded=0;whiteSpace=wrap;html=1;direction=east;" vertex="1" parent="9zuOswauZrqL41sB7HYH-114">
          <mxGeometry x="5" y="10" width="20" height="40" as="geometry" />
        </mxCell>
        <mxCell id="9zuOswauZrqL41sB7HYH-116" value="OFSP" style="text;html=1;align=center;verticalAlign=middle;resizable=0;points=[];autosize=1;strokeColor=none;fillColor=none;rotation=-90;container=1;" vertex="1" parent="9zuOswauZrqL41sB7HYH-114">
          <mxGeometry x="-15" y="15" width="60" height="30" as="geometry" />
        </mxCell>
        <mxCell id="9zuOswauZrqL41sB7HYH-117" style="edgeStyle=orthogonalEdgeStyle;rounded=0;orthogonalLoop=1;jettySize=auto;html=1;exitX=1;exitY=0.5;exitDx=0;exitDy=0;entryX=0.833;entryY=0.667;entryDx=0;entryDy=0;entryPerimeter=0;strokeColor=#0000FF;" edge="1" parent="1" source="9zuOswauZrqL41sB7HYH-22" target="9zuOswauZrqL41sB7HYH-116">
          <mxGeometry relative="1" as="geometry" />
        </mxCell>
        <mxCell id="9zuOswauZrqL41sB7HYH-118" style="edgeStyle=orthogonalEdgeStyle;rounded=0;orthogonalLoop=1;jettySize=auto;html=1;exitX=1;exitY=0.5;exitDx=0;exitDy=0;entryX=0.833;entryY=0.333;entryDx=0;entryDy=0;entryPerimeter=0;strokeColor=#3333FF;" edge="1" parent="1" source="9zuOswauZrqL41sB7HYH-21" target="9zuOswauZrqL41sB7HYH-116">
          <mxGeometry relative="1" as="geometry">
            <Array as="points">
              <mxPoint x="490" y="540" />
              <mxPoint x="490" y="580" />
              <mxPoint x="580" y="580" />
            </Array>
          </mxGeometry>
        </mxCell>
        <mxCell id="9zuOswauZrqL41sB7HYH-119" value="" style="group" vertex="1" connectable="0" parent="1">
          <mxGeometry x="295" y="740" width="30" height="60" as="geometry" />
        </mxCell>
        <mxCell id="9zuOswauZrqL41sB7HYH-120" value="" style="rounded=0;whiteSpace=wrap;html=1;direction=east;" vertex="1" parent="9zuOswauZrqL41sB7HYH-119">
          <mxGeometry x="5" y="10" width="20" height="40" as="geometry" />
        </mxCell>
        <mxCell id="9zuOswauZrqL41sB7HYH-121" value="OFSP" style="text;html=1;align=center;verticalAlign=middle;resizable=0;points=[];autosize=1;strokeColor=none;fillColor=none;rotation=-90;container=1;" vertex="1" parent="9zuOswauZrqL41sB7HYH-119">
          <mxGeometry x="-15" y="15" width="60" height="30" as="geometry" />
        </mxCell>
        <mxCell id="9zuOswauZrqL41sB7HYH-122" style="edgeStyle=orthogonalEdgeStyle;rounded=0;orthogonalLoop=1;jettySize=auto;html=1;exitX=0;exitY=0.5;exitDx=0;exitDy=0;entryX=0.833;entryY=0.167;entryDx=0;entryDy=0;entryPerimeter=0;strokeColor=#0000FF;" edge="1" parent="1" source="9zuOswauZrqL41sB7HYH-19" target="9zuOswauZrqL41sB7HYH-121">
          <mxGeometry relative="1" as="geometry">
            <Array as="points">
              <mxPoint x="220" y="540" />
              <mxPoint x="220" y="730" />
              <mxPoint x="300" y="730" />
            </Array>
          </mxGeometry>
        </mxCell>
        <mxCell id="9zuOswauZrqL41sB7HYH-123" style="edgeStyle=orthogonalEdgeStyle;rounded=0;orthogonalLoop=1;jettySize=auto;html=1;exitX=1;exitY=0.5;exitDx=0;exitDy=0;entryX=0.833;entryY=0.833;entryDx=0;entryDy=0;entryPerimeter=0;strokeColor=#0000FF;" edge="1" parent="1" source="9zuOswauZrqL41sB7HYH-20" target="9zuOswauZrqL41sB7HYH-121">
          <mxGeometry relative="1" as="geometry">
            <Array as="points">
              <mxPoint x="400" y="540" />
              <mxPoint x="400" y="730" />
              <mxPoint x="320" y="730" />
            </Array>
          </mxGeometry>
        </mxCell>
        <mxCell id="9zuOswauZrqL41sB7HYH-124" style="edgeStyle=none;rounded=0;orthogonalLoop=1;jettySize=auto;html=1;exitX=0.25;exitY=1;exitDx=0;exitDy=0;entryX=0.833;entryY=0.333;entryDx=0;entryDy=0;entryPerimeter=0;" edge="1" parent="1" source="9zuOswauZrqL41sB7HYH-41" target="9zuOswauZrqL41sB7HYH-95">
          <mxGeometry relative="1" as="geometry" />
        </mxCell>
        <mxCell id="9zuOswauZrqL41sB7HYH-125" style="edgeStyle=none;rounded=0;orthogonalLoop=1;jettySize=auto;html=1;exitX=0.5;exitY=1;exitDx=0;exitDy=0;entryX=0.833;entryY=0.333;entryDx=0;entryDy=0;entryPerimeter=0;" edge="1" parent="1" source="9zuOswauZrqL41sB7HYH-41" target="9zuOswauZrqL41sB7HYH-98">
          <mxGeometry relative="1" as="geometry" />
        </mxCell>
        <mxCell id="9zuOswauZrqL41sB7HYH-126" style="edgeStyle=none;rounded=0;orthogonalLoop=1;jettySize=auto;html=1;exitX=0.5;exitY=1;exitDx=0;exitDy=0;entryX=0.833;entryY=0.667;entryDx=0;entryDy=0;entryPerimeter=0;" edge="1" parent="1" source="9zuOswauZrqL41sB7HYH-41" target="9zuOswauZrqL41sB7HYH-78">
          <mxGeometry relative="1" as="geometry" />
        </mxCell>
        <mxCell id="9zuOswauZrqL41sB7HYH-127" style="edgeStyle=none;rounded=0;orthogonalLoop=1;jettySize=auto;html=1;exitX=0.75;exitY=1;exitDx=0;exitDy=0;entryX=0.833;entryY=0.667;entryDx=0;entryDy=0;entryPerimeter=0;" edge="1" parent="1" source="9zuOswauZrqL41sB7HYH-41" target="9zuOswauZrqL41sB7HYH-101">
          <mxGeometry relative="1" as="geometry" />
        </mxCell>
        <mxCell id="9zuOswauZrqL41sB7HYH-128" style="edgeStyle=none;rounded=0;orthogonalLoop=1;jettySize=auto;html=1;exitX=0.5;exitY=1;exitDx=0;exitDy=0;entryX=0.833;entryY=0.333;entryDx=0;entryDy=0;entryPerimeter=0;" edge="1" parent="1" source="9zuOswauZrqL41sB7HYH-42" target="9zuOswauZrqL41sB7HYH-107">
          <mxGeometry relative="1" as="geometry" />
        </mxCell>
        <mxCell id="9zuOswauZrqL41sB7HYH-129" style="edgeStyle=none;rounded=0;orthogonalLoop=1;jettySize=auto;html=1;exitX=0.5;exitY=1;exitDx=0;exitDy=0;entryX=0.833;entryY=0.667;entryDx=0;entryDy=0;entryPerimeter=0;" edge="1" parent="1" source="9zuOswauZrqL41sB7HYH-42" target="9zuOswauZrqL41sB7HYH-110">
          <mxGeometry relative="1" as="geometry" />
        </mxCell>
        <mxCell id="9zuOswauZrqL41sB7HYH-130" style="edgeStyle=none;rounded=0;orthogonalLoop=1;jettySize=auto;html=1;exitX=0.25;exitY=1;exitDx=0;exitDy=0;entryX=0.833;entryY=0.333;entryDx=0;entryDy=0;entryPerimeter=0;" edge="1" parent="1" source="9zuOswauZrqL41sB7HYH-42" target="9zuOswauZrqL41sB7HYH-104">
          <mxGeometry relative="1" as="geometry" />
        </mxCell>
        <mxCell id="9zuOswauZrqL41sB7HYH-131" style="edgeStyle=none;rounded=0;orthogonalLoop=1;jettySize=auto;html=1;exitX=0.75;exitY=1;exitDx=0;exitDy=0;entryX=0.833;entryY=0.667;entryDx=0;entryDy=0;entryPerimeter=0;" edge="1" parent="1" source="9zuOswauZrqL41sB7HYH-42" target="9zuOswauZrqL41sB7HYH-113">
          <mxGeometry relative="1" as="geometry" />
        </mxCell>
        <mxCell id="9zuOswauZrqL41sB7HYH-132" style="edgeStyle=none;rounded=0;orthogonalLoop=1;jettySize=auto;html=1;exitX=0.25;exitY=1;exitDx=0;exitDy=0;entryX=0.833;entryY=0.333;entryDx=0;entryDy=0;entryPerimeter=0;" edge="1" parent="1" source="9zuOswauZrqL41sB7HYH-38" target="9zuOswauZrqL41sB7HYH-89">
          <mxGeometry relative="1" as="geometry" />
        </mxCell>
        <mxCell id="9zuOswauZrqL41sB7HYH-134" style="edgeStyle=none;rounded=0;orthogonalLoop=1;jettySize=auto;html=1;exitX=0.5;exitY=1;exitDx=0;exitDy=0;entryX=0.833;entryY=0.333;entryDx=0;entryDy=0;entryPerimeter=0;" edge="1" parent="1" source="9zuOswauZrqL41sB7HYH-38" target="9zuOswauZrqL41sB7HYH-81">
          <mxGeometry relative="1" as="geometry" />
        </mxCell>
        <mxCell id="9zuOswauZrqL41sB7HYH-135" style="edgeStyle=none;rounded=0;orthogonalLoop=1;jettySize=auto;html=1;exitX=0.5;exitY=1;exitDx=0;exitDy=0;entryX=0.833;entryY=0.667;entryDx=0;entryDy=0;entryPerimeter=0;" edge="1" parent="1" source="9zuOswauZrqL41sB7HYH-38" target="9zuOswauZrqL41sB7HYH-84">
          <mxGeometry relative="1" as="geometry" />
        </mxCell>
        <mxCell id="9zuOswauZrqL41sB7HYH-136" style="edgeStyle=none;rounded=0;orthogonalLoop=1;jettySize=auto;html=1;exitX=0.75;exitY=1;exitDx=0;exitDy=0;entryX=0.833;entryY=0.667;entryDx=0;entryDy=0;entryPerimeter=0;" edge="1" parent="1" source="9zuOswauZrqL41sB7HYH-38" target="9zuOswauZrqL41sB7HYH-92">
          <mxGeometry relative="1" as="geometry" />
        </mxCell>
      </root>
    </mxGraphModel>
  </diagram>
</mxfile>
